# xmcd CD database file
#
# Track frame offsets:
#	150
#	7505
#	40872
#	60754
#	90040
#	115209
#	142140
#	165225
#	185978
#	216572
#	222537
#	240449
#
# Disc length: 3370 seconds
#
# Revision: 1
# Processed by: cddbd v1.5.2PL0 Copyright (c) Steve Scherf et al.
# Submitted via: CDex 1.81
#
DISCID=9a0d280c
DTITLE=Gandalf - Sanctuary
DYEAR=2009
DGENRE=New Age
TTITLE0=Alhambra - Prelude
TTITLE1=Under Southern Skies
TTITLE2=Once in A Star-Brightened Night
TTITLE3=Alhambra
TTITLE4=A Place in the Sun
TTITLE5=Citadel - Part 1
TTITLE6=Citadel - Part 2
TTITLE7=The Loveliest Flower in My Garden
TTITLE8=Pilgrims' Road
TTITLE9=A Place in the Sun - Interlude
TTITLE10=When Blossoms Turn to Fruit
TTITLE11=Alhambra - Reflections
EXTD=YEAR: 2009
EXTT0=
EXTT1=
EXTT2=
EXTT3=
EXTT4=
EXTT5=
EXTT6=
EXTT7=
EXTT8=
EXTT9=
EXTT10=
EXTT11=
PLAYORDER=
